<mxfile host="app.diagrams.net" modified="2022-10-13T12:02:18.272Z" agent="5.0 (Windows NT 10.0; Win64; x64) AppleWebKit/537.36 (KHTML, like Gecko) Chrome/87.0.4280.88 Safari/537.36" etag="M6mYqPOCUMXrYXX3CIJM" version="20.4.0" type="github">
  <diagram id="1kya2VSnhpykryTwjLcf" name="Страница 1">
    <mxGraphModel dx="1185" dy="2353" grid="1" gridSize="10" guides="1" tooltips="1" connect="1" arrows="1" fold="1" page="1" pageScale="1" pageWidth="1169" pageHeight="1654" math="0" shadow="0">
      <root>
        <mxCell id="0" />
        <mxCell id="1" parent="0" />
        <mxCell id="RXMAYbVL5oOYPciDAXBC-3" value="" style="edgeStyle=orthogonalEdgeStyle;rounded=0;orthogonalLoop=1;jettySize=auto;html=1;" edge="1" parent="1" source="qSYNQjV0j3aE5ffJ13Yq-1" target="RXMAYbVL5oOYPciDAXBC-5">
          <mxGeometry relative="1" as="geometry" />
        </mxCell>
        <mxCell id="RXMAYbVL5oOYPciDAXBC-8" value="Нет ошибок" style="edgeStyle=orthogonalEdgeStyle;rounded=0;orthogonalLoop=1;jettySize=auto;html=1;exitX=1;exitY=0.5;exitDx=0;exitDy=0;" edge="1" parent="1" source="RXMAYbVL5oOYPciDAXBC-2">
          <mxGeometry x="-0.7959" relative="1" as="geometry">
            <mxPoint x="230" y="630" as="targetPoint" />
            <mxPoint as="offset" />
          </mxGeometry>
        </mxCell>
        <mxCell id="qSYNQjV0j3aE5ffJ13Yq-1" value="Начало" style="ellipse;whiteSpace=wrap;html=1;" parent="1" vertex="1">
          <mxGeometry x="355" y="-10" width="120" height="80" as="geometry" />
        </mxCell>
        <mxCell id="RXMAYbVL5oOYPciDAXBC-23" value="Есть ошибки" style="edgeStyle=orthogonalEdgeStyle;rounded=0;orthogonalLoop=1;jettySize=auto;html=1;fontColor=#000000;" edge="1" parent="1" source="RXMAYbVL5oOYPciDAXBC-2" target="RXMAYbVL5oOYPciDAXBC-21">
          <mxGeometry relative="1" as="geometry" />
        </mxCell>
        <mxCell id="RXMAYbVL5oOYPciDAXBC-2" value="А1: Делегаты DataBaseActions" style="rhombus;whiteSpace=wrap;html=1;" vertex="1" parent="1">
          <mxGeometry x="15" y="360" width="150" height="80" as="geometry" />
        </mxCell>
        <mxCell id="RXMAYbVL5oOYPciDAXBC-10" value="Отсутствует" style="edgeStyle=orthogonalEdgeStyle;rounded=0;orthogonalLoop=1;jettySize=auto;html=1;entryX=0;entryY=0.5;entryDx=0;entryDy=0;" edge="1" parent="1" source="RXMAYbVL5oOYPciDAXBC-5" target="RXMAYbVL5oOYPciDAXBC-20">
          <mxGeometry x="-0.4286" relative="1" as="geometry">
            <mxPoint x="605" y="220" as="targetPoint" />
            <mxPoint as="offset" />
          </mxGeometry>
        </mxCell>
        <mxCell id="RXMAYbVL5oOYPciDAXBC-12" value="Присутствует" style="edgeStyle=orthogonalEdgeStyle;rounded=0;orthogonalLoop=1;jettySize=auto;html=1;" edge="1" parent="1" source="RXMAYbVL5oOYPciDAXBC-5" target="RXMAYbVL5oOYPciDAXBC-11">
          <mxGeometry x="-0.75" relative="1" as="geometry">
            <mxPoint as="offset" />
          </mxGeometry>
        </mxCell>
        <mxCell id="RXMAYbVL5oOYPciDAXBC-5" value="А2: файл db.confi.json" style="rhombus;whiteSpace=wrap;html=1;" vertex="1" parent="1">
          <mxGeometry x="330" y="180" width="170" height="80" as="geometry" />
        </mxCell>
        <mxCell id="RXMAYbVL5oOYPciDAXBC-18" value="" style="edgeStyle=orthogonalEdgeStyle;rounded=0;orthogonalLoop=1;jettySize=auto;html=1;exitX=1;exitY=0.5;exitDx=0;exitDy=0;" edge="1" parent="1" source="RXMAYbVL5oOYPciDAXBC-20" target="RXMAYbVL5oOYPciDAXBC-17">
          <mxGeometry relative="1" as="geometry">
            <mxPoint x="725" y="220" as="sourcePoint" />
          </mxGeometry>
        </mxCell>
        <mxCell id="RXMAYbVL5oOYPciDAXBC-14" value="Не пройдена" style="edgeStyle=orthogonalEdgeStyle;rounded=0;orthogonalLoop=1;jettySize=auto;html=1;entryX=0.5;entryY=1;entryDx=0;entryDy=0;" edge="1" parent="1" source="RXMAYbVL5oOYPciDAXBC-11" target="RXMAYbVL5oOYPciDAXBC-20">
          <mxGeometry x="-0.7815" relative="1" as="geometry">
            <mxPoint x="665" y="250" as="targetPoint" />
            <mxPoint as="offset" />
          </mxGeometry>
        </mxCell>
        <mxCell id="RXMAYbVL5oOYPciDAXBC-16" value="Пройдена" style="edgeStyle=orthogonalEdgeStyle;rounded=0;orthogonalLoop=1;jettySize=auto;html=1;" edge="1" parent="1" source="RXMAYbVL5oOYPciDAXBC-11">
          <mxGeometry x="-0.75" relative="1" as="geometry">
            <mxPoint x="415" y="500" as="targetPoint" />
            <mxPoint as="offset" />
          </mxGeometry>
        </mxCell>
        <mxCell id="RXMAYbVL5oOYPciDAXBC-11" value="А3: Валидация" style="rhombus;whiteSpace=wrap;html=1;" vertex="1" parent="1">
          <mxGeometry x="332.5" y="340" width="165" height="80" as="geometry" />
        </mxCell>
        <mxCell id="RXMAYbVL5oOYPciDAXBC-17" value="Конец" style="ellipse;whiteSpace=wrap;html=1;" vertex="1" parent="1">
          <mxGeometry x="805" y="190" width="120" height="60" as="geometry" />
        </mxCell>
        <mxCell id="RXMAYbVL5oOYPciDAXBC-20" value="Исключение" style="triangle;whiteSpace=wrap;html=1;fillColor=#f8cecc;strokeColor=#b85450;fontColor=#FF0000;fontStyle=1" vertex="1" parent="1">
          <mxGeometry x="640" y="180" width="90" height="80" as="geometry" />
        </mxCell>
        <mxCell id="RXMAYbVL5oOYPciDAXBC-24" style="edgeStyle=orthogonalEdgeStyle;rounded=0;orthogonalLoop=1;jettySize=auto;html=1;fontColor=#000000;entryX=0.5;entryY=1;entryDx=0;entryDy=0;" edge="1" parent="1" source="RXMAYbVL5oOYPciDAXBC-21" target="RXMAYbVL5oOYPciDAXBC-17">
          <mxGeometry relative="1" as="geometry">
            <mxPoint x="240" y="240" as="targetPoint" />
          </mxGeometry>
        </mxCell>
        <mxCell id="RXMAYbVL5oOYPciDAXBC-21" value="Исключение" style="triangle;whiteSpace=wrap;html=1;fillColor=#f8cecc;strokeColor=#b85450;fontColor=#FF0000;fontStyle=1" vertex="1" parent="1">
          <mxGeometry x="45" y="470" width="90" height="80" as="geometry" />
        </mxCell>
        <mxCell id="RXMAYbVL5oOYPciDAXBC-25" value="Проверяем данные db.config.json" style="text;strokeColor=none;fillColor=none;align=left;verticalAlign=middle;spacingLeft=4;spacingRight=4;overflow=hidden;points=[[0,0.5],[1,0.5]];portConstraint=eastwest;rotatable=0;fontColor=#000000;labelBackgroundColor=#FFFFFF;fontStyle=1;labelBorderColor=none;spacingTop=0;spacingBottom=1;horizontal=1;" vertex="1" parent="1">
          <mxGeometry x="330" y="450" width="220" height="30" as="geometry" />
        </mxCell>
        <mxCell id="RXMAYbVL5oOYPciDAXBC-28" value="" style="edgeStyle=orthogonalEdgeStyle;rounded=0;orthogonalLoop=1;jettySize=auto;html=1;fontColor=#000000;" edge="1" parent="1" source="RXMAYbVL5oOYPciDAXBC-26" target="RXMAYbVL5oOYPciDAXBC-27">
          <mxGeometry relative="1" as="geometry" />
        </mxCell>
        <mxCell id="RXMAYbVL5oOYPciDAXBC-26" value="Если нет (пустое) const, то предупреждение" style="rounded=0;whiteSpace=wrap;html=1;labelBackgroundColor=#FFFFFF;labelBorderColor=none;fontColor=#000000;" vertex="1" parent="1">
          <mxGeometry x="355" y="500" width="120" height="60" as="geometry" />
        </mxCell>
        <mxCell id="RXMAYbVL5oOYPciDAXBC-27" value="" style="rhombus;whiteSpace=wrap;html=1;fontColor=#000000;rounded=0;labelBackgroundColor=#FFFFFF;labelBorderColor=none;" vertex="1" parent="1">
          <mxGeometry x="342.5" y="600" width="145" height="80" as="geometry" />
        </mxCell>
        <mxCell id="RXMAYbVL5oOYPciDAXBC-31" value="" style="endArrow=classic;html=1;rounded=0;fontColor=#000000;entryX=0.5;entryY=0;entryDx=0;entryDy=0;exitX=0.471;exitY=1;exitDx=0;exitDy=0;exitPerimeter=0;" edge="1" parent="1" source="RXMAYbVL5oOYPciDAXBC-5" target="RXMAYbVL5oOYPciDAXBC-2">
          <mxGeometry width="50" height="50" relative="1" as="geometry">
            <mxPoint x="410" y="310" as="sourcePoint" />
            <mxPoint x="215" y="270" as="targetPoint" />
            <Array as="points">
              <mxPoint x="90" y="260" />
            </Array>
          </mxGeometry>
        </mxCell>
      </root>
    </mxGraphModel>
  </diagram>
</mxfile>
